<svg width="374" height="297" viewBox="0 0 374 297" fill="none" xmlns="http://www.w3.org/2000/svg">
<path d="M167 47.6489C143.886 36.5025 114.189 39.9486 87.9995 47.4397C57.5046 56.1923 27.9885 71.5126 9.97816 83.0085C8.32561 84.0632 7.02915 85.4974 6.24356 87.1398C5.45796 88.7822 5.21641 90.5634 5.54774 92.2709L43.5903 287.983C43.8801 289.471 44.5954 290.852 45.6706 291.999C46.7459 293.146 48.1467 294.022 49.7449 294.547C51.343 295.073 53.0873 295.23 54.8181 295.006C56.5488 294.781 58.2106 294.182 59.6513 293.262C76.3414 282.632 103.796 268.414 131.532 260.456C159.914 252.318 184.906 251.688 200.609 263.222C201.771 264.075 203.151 264.677 204.646 264.984C206.141 265.291 207.714 265.296 209.248 264.998C210.782 264.7 212.239 264.106 213.51 263.261C214.781 262.416 215.835 261.341 216.593 260.115C226.832 243.538 250.24 234.76 279.583 231.678C308.301 228.662 339.104 231.556 358.54 235.164C360.22 235.477 361.986 235.41 363.674 234.97C365.363 234.53 366.921 233.73 368.206 232.645C369.491 231.559 370.462 230.222 371.029 228.756C371.597 227.289 371.743 225.741 371.454 224.253L333.411 28.5407C333.079 26.8334 332.188 25.2724 330.844 24.0439C329.5 22.8154 327.761 21.9713 325.834 21.6124C304.828 17.7004 271.722 14.5526 240.169 17.8609C213.077 20.7082 184.255 28.6557 167 47.6489Z" fill="#3C3232"/>
<path d="M55.72 104.18C59.7876 103.389 63.71 105.979 64.4846 109.964C63.71 105.979 66.3768 102.108 70.4444 101.318C74.512 100.527 78.4345 103.117 79.209 107.101C80.3764 113.107 74.8359 116.383 68.6435 127.507C68.5753 127.63 68.4812 127.735 68.3679 127.818C68.2545 127.9 68.1246 127.956 67.9872 127.983C67.8498 128.009 67.7082 128.006 67.5723 127.972C67.4365 127.939 67.3096 127.876 67.2005 127.788C57.2917 119.793 50.9276 118.831 49.7602 112.826C48.9856 108.841 51.6523 104.97 55.72 104.18Z" fill="#ABD1D8"/>
</svg>
